#tb 0: 1001/30000
#media_type 0: video
#codec_id 0: rawvideo
#dimensions 0: 416x240
#sar 0: 0/1
0,          0,          0,        1,   149760, 0x59891e4e
0,          1,          1,        1,   149760, 0x6c152de8
0,          2,          2,        1,   149760, 0x6f2c0f37
0,          3,          3,        1,   149760, 0xdc4142e9
0,          4,          4,        1,   149760, 0x13a6dfe0
0,          5,          5,        1,   149760, 0xea2b8197
0,          6,          6,        1,   149760, 0x228207b8
0,          7,          7,        1,   149760, 0xe6c33dc5
0,          8,          8,        1,   149760, 0xa488a0f6
0,          9,          9,        1,   149760, 0xf618c591
0,         10,         10,        1,   149760, 0x0c96c7eb
0,         11,         11,        1,   149760, 0x347b17b8
0,         12,         12,        1,   149760, 0xa2379e18
0,         13,         13,        1,   149760, 0x635a7cbd
0,         14,         14,        1,   149760, 0xa770ed3c
0,         15,         15,        1,   149760, 0x54271b2b
0,         16,         16,        1,   149760, 0xc09751d6
0,         17,         17,        1,   149760, 0xa33997cb
0,         18,         18,        1,   149760, 0x8f382ef3
0,         19,         19,        1,   149760, 0x449311d8
0,         20,         20,        1,   149760, 0x67a2f419
0,         21,         21,        1,   149760, 0xa025b8a1
0,         22,         22,        1,   149760, 0xebb7e911
0,         23,         23,        1,   149760, 0x6decb08e
0,         24,         24,        1,   149760, 0x20a354ef
0,         25,         25,        1,   149760, 0x6d609fc5
0,         26,         26,        1,   149760, 0x73992f9b
0,         27,         27,        1,   149760, 0x46968752
0,         28,         28,        1,   149760, 0xd9e9017d
0,         29,         29,        1,   149760, 0xae321b3c
0,         30,         30,        1,   149760, 0x0f53a016
0,         31,         31,        1,   149760, 0x74a5aacd
0,         32,         32,        1,   149760, 0x893afc39
0,         33,         33,        1,   149760, 0xbeb13aed
0,         34,         34,        1,   149760, 0xc8658ed9
0,         35,         35,        1,   149760, 0xcf7d544e
0,         36,         36,        1,   149760, 0x782bd063
0,         37,         37,        1,   149760, 0x32c53ffa
0,         38,         38,        1,   149760, 0xed3849c2
0,         39,         39,        1,   149760, 0xda5f336a
0,         40,         40,        1,   149760, 0x0460dbf7
0,         41,         41,        1,   149760, 0x782f25e3
0,         42,         42,        1,   149760, 0x1199900a
0,         43,         43,        1,   149760, 0xd51e4dfd
0,         44,         44,        1,   149760, 0xfd32e6d5
0,         45,         45,        1,   149760, 0x880d5f9b
0,         46,         46,        1,   149760, 0xe1a7b52d
0,         47,         47,        1,   149760, 0x97c4228a
0,         48,         48,        1,   149760, 0x0c539d58
0,         49,         49,        1,   149760, 0x5edfd99e
0,         50,         50,        1,   149760, 0x92a40dcc
0,         51,         51,        1,   149760, 0xa33dff8d
0,         52,         52,        1,   149760, 0xf9f637ee
0,         53,         53,        1,   149760, 0x4c02c63d
0,         54,         54,        1,   149760, 0x94125eda
0,         55,         55,        1,   149760, 0x0ba6d181
0,         56,         56,        1,   149760, 0x1c4b7cf1
0,         57,         57,        1,   149760, 0x3af454c4
0,         58,         58,        1,   149760, 0x3666e3f4
0,         59,         59,        1,   149760, 0x1013f2ec
